<svg width="448" height="448" viewBox="0 0 448 448" fill="none" xmlns="http://www.w3.org/2000/svg">
<mask id="mask0_1479_293" style="mask-type:alpha" maskUnits="userSpaceOnUse" x="0" y="0" width="448" height="448">
<circle cx="224" cy="224" r="224" fill="black"/>
</mask>
<g mask="url(#mask0_1479_293)">
<path d="M3.54012 370.585C-0.685901 366.096 -4.91191 361.606 -9.99602 356.199C-16.1588 349.172 -21.4635 343.063 -26.7682 336.954C-28.923 333.879 -31.0778 330.805 -33.9544 326.772C-35.9132 323.633 -37.1501 321.453 -38 318.663C10.2681 289.894 62.8392 280.241 117.031 282.349C153.286 283.759 189.507 289.75 225.418 295.705C276.275 304.14 327.028 306.861 378.031 298.622C413.558 292.883 447.23 281.581 478.057 262.317C480.683 260.675 484.068 260.279 487 260C486.123 263.375 485.347 266.054 484.571 268.733C473.163 288.345 461.755 307.956 450.126 328.168C448.099 331.093 446.292 333.417 443.777 336.793C437.26 344.795 431.45 351.747 425.641 358.698C422.53 361.666 419.419 364.633 415.413 368.446C407.743 375.335 400.968 381.38 394.193 387.426C391.836 389.107 389.479 390.789 386.641 392.902C366.677 404.679 347.193 416.024 326.56 427.987C316.062 432.085 306.716 435.564 297.369 439.043C282.162 442.306 266.955 445.568 250.465 448.254C246.16 448.575 243.138 449.475 240.115 450.374C237.412 450.528 234.708 450.682 230.62 450.199C215.077 449.977 200.918 450.392 186.76 450.807C184.668 450.842 182.576 450.876 179.704 451C178.608 450.956 178.29 450.823 177.334 449.836C173.506 448.856 170.316 448.729 167.127 448.602C152.695 445.846 138.263 443.09 122.512 439.761C111.483 435.755 101.773 432.322 92.0641 428.888C82.0066 423.745 71.949 418.601 60.6753 412.883C50.5277 406.476 41.5963 400.644 32.6649 394.812C29.7906 392.429 26.9164 390.046 22.9657 386.983C15.7729 381.064 9.6565 375.825 3.54012 370.585Z" fill="#FF6D00"/>
<path d="M267.912 209C269.541 209.005 271.169 209.01 273.561 209.577C275.068 210.836 275.693 211.785 276.568 212.196C312.257 228.966 349.274 240.5 388.857 243.893C414.133 246.06 438.697 244.435 463 237.477C460.372 251.112 457.745 264.748 454.936 278.992C452.752 284.887 450.751 290.173 448.349 295.873C445.525 297.06 442.82 297.374 440.72 298.675C416.08 313.946 389.166 322.906 360.769 327.455C320.002 333.986 279.435 331.83 238.785 325.143C210.081 320.422 181.13 315.673 152.15 314.555C108.835 312.884 66.8144 320.537 27.8143 343C23.6467 337.951 20.2076 332.762 16.7686 327.572C13.0679 319.846 9.36731 312.12 5.17827 303.424C2.02722 295.512 -0.635411 288.568 -3.29804 281.624C-6.02998 268.258 -8.76192 254.891 -11 241.093C-0.02313 247.536 9.93299 255.459 21.0413 261.088C54.9709 278.28 90.9129 284.585 128.723 278.464C153.21 274.5 176.221 266.386 197.511 253.615C220.142 240.041 242.621 226.21 265.114 212.406C266.296 211.68 266.991 210.154 267.912 209Z" fill="#FFCC01"/>
<path d="M265 220.894C264.323 222.5 263.658 223.96 262.526 224.653C240.991 237.853 219.469 251.076 197.802 264.056C177.419 276.267 155.388 284.025 131.944 287.815C95.7441 293.668 61.3329 287.64 28.8484 271.201C18.2133 265.819 8.68119 258.244 -1.84648 251.408C-2.72917 249.09 -3.12071 247.035 -3.60587 244.448C-4.10803 236.643 -4.51658 229.37 -5 221.633C-4.58973 214.065 -4.10458 206.96 -3.66483 199.171C-3.21345 196.322 -2.71668 194.157 -2.1254 191.445C15.2019 179.7 32.5869 168.97 52.4476 162.697C97.4949 148.468 141.446 151.725 183.538 172.273C204.361 182.438 223.612 195.843 243.579 207.773C250.643 211.993 257.723 216.186 265 220.894Z" fill="#0B72FE"/>
<path d="M447.903 249.483C423.861 256.663 399.695 258.245 374.829 256.136C335.887 252.833 299.469 241.604 264.359 225.279C263.498 224.879 262.883 223.955 262 222.776C275.53 218.059 288.966 212.41 302.965 210.03C316.892 207.663 331.401 207.863 345.624 208.206C374.28 208.895 400.45 218.6 425.106 232.437C432.881 236.8 439.851 242.582 447.64 247.969C448.072 248.508 448.053 248.792 447.903 249.483Z" fill="#0B72FE"/>
<path d="M380.267 57.8264C382.494 60.2138 384.721 62.6012 387.609 65.6601C392.687 71.5768 397.105 76.822 401.522 82.0673C403.23 83.9698 404.937 85.8722 407.08 87.9832C415.816 103.186 424.117 118.179 432.912 134.047C435.91 142.132 438.413 149.343 440.917 156.554C443.933 171.37 446.95 186.186 449.999 201.536C450.005 216.911 449.978 231.752 449.965 247.125C449.959 248.349 449.94 249.04 449.456 250C441.824 245.212 435.019 239.518 427.426 235.22C403.35 221.591 377.795 212.032 349.813 211.353C335.925 211.016 321.757 210.818 308.157 213.15C294.488 215.494 281.368 221.058 267.422 225.166C265.273 225.115 263.709 225.11 261.939 224.601C254.637 219.88 247.533 215.676 240.445 211.443C220.41 199.48 201.094 186.037 180.2 175.844C137.964 155.237 93.8642 151.972 48.6637 166.241C28.7355 172.531 11.2913 183.292 -6 194.52C-3.52644 182.236 -1.05287 169.951 1.69626 156.578C4.36384 148.245 6.75584 141.001 9.56988 133.45C15.1237 123.513 20.1665 113.834 25.4218 104.272C28.4141 98.8283 31.7534 93.5758 34.9365 88.2371C36.3012 86.9887 37.6659 85.7404 39.6471 83.7776C45.0452 77.1911 49.8269 71.3189 54.6085 65.4467C56.9917 63.206 59.3749 60.9654 62.4241 58.0517C68.3444 52.4763 73.5987 47.5739 78.8531 42.6716C80.7254 41.4485 82.5978 40.2254 84.6968 38.5591C86.2648 37.5177 87.6661 37.0261 88.9381 36.3051C102.544 28.593 116.13 20.8446 130.607 12.6715C138.668 9.69463 145.843 7.1525 153.019 4.61036C167.827 1.5873 182.635 -1.43577 197.98 -4.47908C205.749 -4.99327 212.981 -5.48721 220.702 -6C228.414 -5.50104 235.638 -4.98324 243.408 -4.47931C258.7 -1.49471 273.448 1.50378 289.34 4.63025C297.677 7.27161 304.867 9.78498 312.058 12.2984C319.324 16.1663 326.591 20.0343 334.803 24.35C342.506 29.2248 349.263 33.652 356.02 38.0791C358.204 39.5645 360.389 41.0499 363.302 43.0425C369.442 48.3085 374.854 53.0674 380.267 57.8264Z" fill="black"/>
<g filter="url(#filter0_d_1479_293)">
<path d="M140.812 109.146H215.153C247.396 109.146 271.721 113.818 288.127 123.16C304.533 132.503 312.736 148.624 312.736 171.524C312.736 181.095 311.027 189.754 307.609 197.501C304.305 205.134 299.463 211.458 293.083 216.471C286.703 221.37 278.841 224.674 269.499 226.383V228.092C279.183 229.801 287.785 232.82 295.305 237.149C302.938 241.479 308.92 247.688 313.249 255.777C317.692 263.867 319.914 274.348 319.914 287.223C319.914 302.49 316.268 315.478 308.977 326.188C301.799 336.897 291.488 345.043 278.044 350.626C264.714 356.209 248.877 359 230.534 359H140.812V109.146ZM181.828 212.198H221.135C239.706 212.198 252.58 209.179 259.758 203.141C266.936 197.102 270.524 188.272 270.524 176.651C270.524 164.802 266.252 156.257 257.707 151.017C249.276 145.776 235.832 143.155 217.375 143.155H181.828V212.198ZM181.828 245.353V324.649H225.065C244.206 324.649 257.65 320.947 265.397 313.541C273.145 306.135 277.019 296.109 277.019 283.463C277.019 275.715 275.253 268.993 271.721 263.297C268.303 257.6 262.663 253.214 254.802 250.138C246.94 246.948 236.345 245.353 223.015 245.353H181.828Z" fill="#EBEBEB"/>
</g>
<circle cx="203" cy="53" r="6" fill="#D9D9D9"/>
<circle cx="244" cy="53" r="6" fill="#D9D9D9"/>
</g>
<defs>
<filter id="filter0_d_1479_293" x="136.812" y="109.146" width="187.102" height="257.854" filterUnits="userSpaceOnUse" color-interpolation-filters="sRGB">
<feFlood flood-opacity="0" result="BackgroundImageFix"/>
<feColorMatrix in="SourceAlpha" type="matrix" values="0 0 0 0 0 0 0 0 0 0 0 0 0 0 0 0 0 0 127 0" result="hardAlpha"/>
<feOffset dy="4"/>
<feGaussianBlur stdDeviation="2"/>
<feComposite in2="hardAlpha" operator="out"/>
<feColorMatrix type="matrix" values="0 0 0 0 0 0 0 0 0 0 0 0 0 0 0 0 0 0 0.25 0"/>
<feBlend mode="normal" in2="BackgroundImageFix" result="effect1_dropShadow_1479_293"/>
<feBlend mode="normal" in="SourceGraphic" in2="effect1_dropShadow_1479_293" result="shape"/>
</filter>
</defs>
</svg>
